<?xml version="1.0" encoding="UTF-8" standalone="no"?>
<!-- Created with Inkscape (http://www.inkscape.org/) -->

<svg
   width="210mm"
   height="297mm"
   viewBox="0 0 210 297"
   version="1.1"
   id="svg1"
   xml:space="preserve"
   sodipodi:docname="draco-project-icon-light.svg"
   inkscape:version="1.3 (0e150ed6c4, 2023-07-21)"
   xmlns:inkscape="http://www.inkscape.org/namespaces/inkscape"
   xmlns:sodipodi="http://sodipodi.sourceforge.net/DTD/sodipodi-0.dtd"
   xmlns="http://www.w3.org/2000/svg"
   xmlns:svg="http://www.w3.org/2000/svg"><sodipodi:namedview
     id="namedview1"
     pagecolor="#505050"
     bordercolor="#ffffff"
     borderopacity="1"
     inkscape:showpageshadow="0"
     inkscape:pageopacity="0"
     inkscape:pagecheckerboard="1"
     inkscape:deskcolor="#505050"
     inkscape:document-units="mm"
     inkscape:zoom="1.0141844"
     inkscape:cx="423.49302"
     inkscape:cy="564.49302"
     inkscape:window-width="1536"
     inkscape:window-height="801"
     inkscape:window-x="1912"
     inkscape:window-y="-8"
     inkscape:window-maximized="1"
     inkscape:current-layer="layer7" /><defs
     id="defs1" /><g
     inkscape:label="Layer 1"
     inkscape:groupmode="layer"
     id="layer1"><g
       id="layer3"
       inkscape:label="refined"
       style="display:inline;opacity:1"
       transform="translate(38.106039,-32.803232)"><g
         inkscape:groupmode="layer"
         id="layer29"
         inkscape:label="background"
         style="display:inline" /><g
         inkscape:groupmode="layer"
         id="layer8"
         inkscape:label="back wing"
         style="display:inline;opacity:1" /><g
         inkscape:groupmode="layer"
         id="layer7"
         inkscape:label="wing"
         style="display:inline;opacity:1"><path
           style="display:inline;opacity:1;fill:#24a8ff;fill-opacity:1;stroke:none;stroke-width:0.264583px;stroke-linecap:butt;stroke-linejoin:miter;stroke-opacity:1"
           d="m 84.7898,163.48893 c 0,0 -4.876649,-1.35438 -2.75055,-7.02402 0,0 1.437841,-3.66957 9.176149,-9.32344 0,0 -5.916099,-6.97678 -16.45218,-13.73311 0,0 -13.066999,-7.30759 -21.061958,-9.13446 0,0 4.782169,5.27591 1.511908,7.08707 0,0 -3.648231,2.28363 -8.420179,2.37812 0,0 34.73962,22.46057 26.654731,35.22269 0,0 8.50546,-1.68629 11.342079,-5.47285 z"
           id="path845"
           inkscape:connector-curvature="0"
           sodipodi:nodetypes="ccccccccc" /><path
           style="display:inline;opacity:1;fill:#004995;fill-opacity:1;stroke:none;stroke-width:0.264583px;stroke-linecap:butt;stroke-linejoin:miter;stroke-opacity:1"
           d="m 78.647691,151.3937 c 0,0 -6.188811,-12.80562 -25.966751,-17.28239 0,0 -11.425772,-3.14041 -31.003271,-2.87314 0,0 -7.75081,0.26727 -14.7666405,3.27405 0,0 9.5265205,0.49442 14.5661905,2.43883 0,0 5.65823,1.83343 7.48355,8.61945 0,0 0.7171,3.43704 -2.28731,6.89603 0,0 -2.70398,3.14001 -3.96624,4.59682 0,0 9.39194,-2.44107 15.817539,-0.3622 0,0 2.666251,0.44092 5.018392,3.29151 0,0 2.39939,2.66161 1.170969,6.1579 0,0 -1.11352,3.22847 -3.1081,6.31531 0,0 2.919111,-3.43325 9.817171,-4.80341 0,0 5.123098,-0.64579 9.27063,1.21263 0,0 7.78555,2.80336 10.71486,7.7643 l 6.52009,-3.1183 c 0,0 -3.023812,-5.10268 -2.97656,-11.00856 0,0 0.398399,-6.12643 3.695481,-11.11883 z"
           id="path878"
           inkscape:connector-curvature="0"
           sodipodi:nodetypes="cccccccccccccccccc" /><path
           style="display:inline;opacity:1;fill:#24a8ff;fill-opacity:1;stroke:none;stroke-width:0.264583px;stroke-linecap:butt;stroke-linejoin:miter;stroke-opacity:1"
           d="m 71.86434,171.30071 0.566899,65.20119 25.058931,-0.0506 c 0,0 21.69583,-0.66145 27.91354,-22.75417 0,0 4.35622,-13.25462 -2.38125,-26.32604 0,0 -7.54276,-13.30517 -24.13289,-15.50344 z m 17.74104,13.52475 c 12.56471,-0.0428 17.2775,7.0435 17.2775,7.0435 4.8948,5.02709 4.36562,14.2875 4.36562,14.2875 -0.92603,7.67292 -4.36562,11.50937 -4.36562,11.50937 -6.08541,8.33437 -18.709451,5.55109 -18.709451,5.55109 l 0.191201,-38.36459 c 0.421759,-0.0167 0.835441,-0.0255 1.24075,-0.0269 z"
           id="path861"
           inkscape:connector-curvature="0" /><path
           style="display:inline;opacity:1;fill:#24a8ff;fill-opacity:1;stroke:none;stroke-width:0.264583px;stroke-linecap:butt;stroke-linejoin:miter;stroke-opacity:1"
           d="m 72.56982,236.50165 -6.972332,-0.0158 c 0,0 6.186141,-5.3228 7.066061,-13.34263 z"
           id="path901-7"
           inkscape:connector-curvature="0"
           sodipodi:nodetypes="cccc" /><path
           id="path858"
           style="display:inline;opacity:1;fill:#004995;fill-opacity:1;stroke:#004995;stroke-width:0.2;stroke-linecap:butt;stroke-linejoin:miter;stroke-miterlimit:4;stroke-dasharray:none;stroke-opacity:1"
           d="m 22.433459,212.49842 c 0,0 0.45344,11.43178 8.77934,18.21074 0,0 7.323651,6.31124 16.076729,7.11305 0,0 8.418992,1.5368 18.30796,-1.33635 0,0 5.412211,-1.73725 10.022613,-4.81085 0,0 6.147199,-4.14268 8.886719,-7.55036 0,0 2.173989,-2.25541 3.674949,-6.24744 0,0 1.24792,-3.38098 1.40317,-5.74629 0,0 -0.222028,-1.18963 -1.279308,-2.26542 0,0 -0.6584,4.70426 -4.667441,9.84919 0,0 -4.87767,6.48129 -11.8935,9.68852 0,0 -5.87993,3.47451 -14.833459,4.47677 0,0 -7.483541,1.1359 -15.568451,-3.40768 0,0 -3.961551,-1.62263 -7.52661,-8.09441 0,0 -1.627371,-4.26681 -0.892381,-7.34041 0,0 0.790511,-5.96968 2.767271,-8.5975 z m 13.257601,-6.05844 c 0,0 5.10268,-8.17373 13.229169,-12.23698 0,0 5.5279,-2.92931 11.055811,-3.44903 0,0 6.682269,-0.97651 12.2472,1.35438 0,0 21.805461,-8.9542 26.666219,-20.24062 0,0 2.561701,-4.0159 3.477371,-11.22589 0,0 0.32052,-3.81123 -0.0102,-6.36257 l -0.37799,-1.84263 c 0,0 -0.41046,-2.07503 0.18899,-3.77976 0,0 0.78037,-3.42095 3.5203,-6.11626 0,0 0.83523,-1.30295 4.40995,-0.86863 0,0 4.74403,3.30746 9.85556,4.57699 l 6.24743,1.9043 v 0 c 0,0 0.66818,-0.90204 0.46772,-3.14042 0,0 -3.90881,-3.54131 -4.54358,-4.74403 0,0 -1.26954,-3.64155 -4.10928,-6.41447 l -1.50338,-1.73725 c 0,0 -9.68431,-7.9084 -23.216943,-0.29595 0,0 11.403253,-4.66593 16.725443,1.32292 0,0 -6.23722,0.30937 -11.682834,4.68591 0,0 -3.073598,2.40543 -4.476768,5.07812 0,0 -1.503392,2.13816 -2.47224,7.85105 0,0 -0.133641,2.17156 -0.801812,4.10927 0,0 -1.12249,2.89496 -3.15042,5.48993 0,0 -3.7117,3.60418 -10.59356,6.72485 0,0 -7.456609,2.73634 -19.541821,4.67271 0,0 -10.746859,2.38932 -18.364038,9.07106 0,0 -8.514881,6.11219 -12.962571,15.70208 0,0 -3.6257,5.31508 -3.54132,15.96936 z"
           inkscape:connector-curvature="0" /><path
           inkscape:connector-curvature="0"
           id="path2730"
           style="display:inline;opacity:1;fill:#24a8ff;fill-opacity:1;stroke:none;stroke-width:0.264583px;stroke-linecap:butt;stroke-linejoin:miter;stroke-opacity:1"
           d="m 86.704346,185.3397 c 0,0 16.091764,-9.91903 12.185224,-13.47205 m 0,0 -27.025232,-0.56694 0.192069,20.92821 c 0,0 7.772431,-1.08948 14.647939,-6.88922" /><path
           style="display:inline;opacity:1;fill:#004995;fill-opacity:1;stroke:none;stroke-width:0.264583px;stroke-linecap:butt;stroke-linejoin:miter;stroke-opacity:1"
           d="m 71.744759,211.17279 c 0,0 10.434201,0.64736 17.87366,-6.22738 0,0 4.48559,-3.39642 5.579351,-8.88182 0,0 0.69919,-3.41719 -3.140509,-3.7333 0,0 2.804078,1.03394 1.737249,3.80859 0,0 -1.46371,4.69288 -9.03741,8.16554 0,0 -6.76951,3.00936 -12.678241,2.99296 0,0 -1.263229,0.21668 -1.40317,1.73725 0,0 -0.334669,1.43283 1.06907,2.13816 z"
           id="path869"
           inkscape:connector-curvature="0"
           sodipodi:nodetypes="ccccccccc" /><path
           style="display:inline;fill:#24a8ff;fill-opacity:1;stroke:none;stroke-width:0.264583px;stroke-linecap:butt;stroke-linejoin:miter;stroke-opacity:1"
           d="m 71.86434,171.30071 c -2.20733,-0.004 -6.21662,0 -6.21662,0 0,0 5.7609,5.34199 6.64083,13.36182 0,0 4.84752,-12.76009 0.42428,-13.26497 z"
           id="path901-8"
           inkscape:connector-curvature="0"
           sodipodi:nodetypes="cccsc" /></g><g
         inkscape:groupmode="layer"
         id="layer13"
         inkscape:label="dragon body"
         style="display:inline;opacity:1"><flowRoot
           xml:space="preserve"
           id="flowRoot893"
           style="font-style:normal;font-weight:normal;font-size:40px;line-height:1.25;font-family:sans-serif;letter-spacing:0px;word-spacing:0px;fill:#000000;fill-opacity:1;stroke:none"><flowRegion
             id="flowRegion895"><rect
               id="rect897"
               width="33.941124"
               height="48.08326"
               x="612.35449"
               y="505.92258" /></flowRegion><flowPara
             id="flowPara899" /></flowRoot></g><g
         inkscape:groupmode="layer"
         id="layer16"
         inkscape:label="D"
         style="display:inline;opacity:1" /><g
         inkscape:groupmode="layer"
         id="layer15"
         inkscape:label="tail"
         style="display:inline;opacity:1" /><g
         inkscape:groupmode="layer"
         id="layer18"
         inkscape:label="tail end"
         style="display:inline" /></g></g></svg>
