<?xml version="1.0" encoding="UTF-8" standalone="no"?>
<!-- Created with Inkscape (http://www.inkscape.org/) -->

<svg
   xmlns:dc="http://purl.org/dc/elements/1.1/"
   xmlns:cc="http://creativecommons.org/ns#"
   xmlns:rdf="http://www.w3.org/1999/02/22-rdf-syntax-ns#"
   xmlns:svg="http://www.w3.org/2000/svg"
   xmlns="http://www.w3.org/2000/svg"
   xmlns:sodipodi="http://sodipodi.sourceforge.net/DTD/sodipodi-0.dtd"
   xmlns:inkscape="http://www.inkscape.org/namespaces/inkscape"
   width="167.80254mm"
   height="148.04407mm"
   viewBox="0 0 167.80253 148.04407"
   version="1.1"
   id="svg8"
   inkscape:version="0.92.4 (5da689c313, 2019-01-14)"
   sodipodi:docname="light-icon.svg">
  <defs
     id="defs2" />
  <sodipodi:namedview
     id="base"
     pagecolor="#ffffff"
     bordercolor="#666666"
     borderopacity="1.0"
     inkscape:pageopacity="0.0"
     inkscape:pageshadow="2"
     inkscape:zoom="0.24748738"
     inkscape:cx="-625.18078"
     inkscape:cy="6.3364328"
     inkscape:document-units="mm"
     inkscape:current-layer="layer2"
     showgrid="false"
     inkscape:window-width="1920"
     inkscape:window-height="1001"
     inkscape:window-x="-9"
     inkscape:window-y="-9"
     inkscape:window-maximized="1"
     fit-margin-top="0"
     fit-margin-left="0"
     fit-margin-right="0"
     fit-margin-bottom="0" />
  <metadata
     id="metadata5">
    <rdf:RDF>
      <cc:Work
         rdf:about="">
        <dc:format>image/svg+xml</dc:format>
        <dc:type
           rdf:resource="http://purl.org/dc/dcmitype/StillImage" />
        <dc:title />
      </cc:Work>
    </rdf:RDF>
  </metadata>
  <g
     inkscape:groupmode="layer"
     id="layer2"
     inkscape:label="face"
     transform="translate(-21.915975,-67.148355)">
    <path
       style="fill:#004995;fill-opacity:1;stroke:none;stroke-width:0.99999994px;stroke-linecap:butt;stroke-linejoin:miter;stroke-opacity:1"
       d="m 82.832031,253.78906 c 0,0 29.294519,148.49125 132.330079,212.13086 0,0 -39.39556,32.32571 -108.08594,13.13281 0,0 136.36991,377.79642 564.67461,225.26338 L 681.8526,582.08878 c 0,0 -250.51826,96.97317 -368.70612,-54.54972 0,0 163.64498,48.48867 386.88868,-59.59765 0,0 3.03131,-86.87359 -88.89258,-131.32032 0,0 -48.48808,78.79096 -105.05664,68.68946 0,0 -37.37534,-65.65917 -128.28906,-114.14649 -1.01016,4.04061 11.11245,25.25479 -2.01954,53.53906 -52.52793,-23.2335 -78.79192,18.18201 -112.12695,12.1211 0,0 -70.71173,8.08162 -180.818359,-103.03516 z M 377.96289,371.04492 c 52.29244,-0.38888 70.54492,81.74414 70.54492,81.74414 -57.57868,-47.47718 -158.59375,13.13086 -158.59375,13.13086 20.20306,-79.80208 70.71094,-91.92383 70.71094,-91.92383 6.15562,-1.98873 11.92833,-2.91094 17.33789,-2.95117 z"
       transform="scale(0.26458333)"
       id="path827"
       inkscape:connector-curvature="0"
       sodipodi:nodetypes="cccccccccccccscccs" />
  </g>
  <g
     inkscape:groupmode="layer"
     id="layer3"
     inkscape:label="tongue"
     transform="translate(-21.915975,-67.148355)">
    <path
       style="fill:#24a8ff;fill-opacity:1;stroke:none;stroke-width:0.26458332px;stroke-linecap:butt;stroke-linejoin:miter;stroke-opacity:1"
       d="m 114.39123,159.33309 c 0,0 38.75414,-25.34403 66.0156,-5.3221 0,0 18.1743,12.80565 3.74175,49.42157 0,0 -4.81085,8.01809 -14.9671,11.75986 l -6.41446,-15.50163 c 0,0 0.53453,-33.94323 -18.17433,-37.41774 0,0 -18.4416,1.33635 -30.20146,-2.93996 z"
       id="path1443"
       inkscape:connector-curvature="0" />
  </g>
</svg>
