<?xml version="1.0" encoding="UTF-8" standalone="no"?>
<!-- Created with Inkscape (http://www.inkscape.org/) -->

<svg
   xmlns:dc="http://purl.org/dc/elements/1.1/"
   xmlns:cc="http://creativecommons.org/ns#"
   xmlns:rdf="http://www.w3.org/1999/02/22-rdf-syntax-ns#"
   xmlns:svg="http://www.w3.org/2000/svg"
   xmlns="http://www.w3.org/2000/svg"
   xmlns:sodipodi="http://sodipodi.sourceforge.net/DTD/sodipodi-0.dtd"
   xmlns:inkscape="http://www.inkscape.org/namespaces/inkscape"
   width="103.09702mm"
   height="104.62172mm"
   viewBox="0 0 103.09703 104.62172"
   version="1.1"
   id="svg8"
   inkscape:version="0.92.4 (5da689c313, 2019-01-14)"
   sodipodi:docname="Mascot-Outlined-v1.svg"
   inkscape:export-filename="dragon_o.png"
   inkscape:export-xdpi="254.53442"
   inkscape:export-ydpi="254.53442">
  <defs
     id="defs2" />
  <sodipodi:namedview
     id="base"
     pagecolor="#ffffff"
     bordercolor="#666666"
     borderopacity="1.0"
     inkscape:pageopacity="0.0"
     inkscape:pageshadow="2"
     inkscape:zoom="1.4"
     inkscape:cx="244.12284"
     inkscape:cy="197.9842"
     inkscape:document-units="mm"
     inkscape:current-layer="layer1"
     showgrid="false"
     inkscape:window-width="1920"
     inkscape:window-height="1001"
     inkscape:window-x="-9"
     inkscape:window-y="-9"
     inkscape:window-maximized="1"
     inkscape:showpageshadow="2"
     inkscape:pagecheckerboard="0"
     inkscape:deskcolor="#d1d1d1"
     fit-margin-top="0"
     fit-margin-left="0"
     fit-margin-right="0"
     fit-margin-bottom="0" />
  <metadata
     id="metadata5">
    <rdf:RDF>
      <cc:Work
         rdf:about="">
        <dc:format>image/svg+xml</dc:format>
        <dc:type
           rdf:resource="http://purl.org/dc/dcmitype/StillImage" />
        <dc:title />
      </cc:Work>
    </rdf:RDF>
  </metadata>
  <g
     inkscape:label="sablon"
     inkscape:groupmode="layer"
     id="layer1"
     style="display:inline;opacity:1"
     transform="translate(-39.696847,-35.636513)" />
  <g
     inkscape:groupmode="layer"
     id="layer6"
     inkscape:label="nyak"
     transform="translate(-39.696847,-35.636513)">
    <path
       style="fill:#050505;fill-opacity:1;stroke:#ffffff;stroke-width:1.5;stroke-linecap:butt;stroke-linejoin:miter;stroke-dasharray:none;stroke-opacity:1"
       d="m 72.38244,91.758928 c 0,0 -10.961309,9.827372 -31.75,24.757432 0,0 8.504465,18.89882 32.316965,22.86757 0,0 0.755952,-9.63839 19.654762,-34.01786 0,0 -10.961311,-13.418154 -20.221727,-13.607142 z"
       id="path888"
       inkscape:connector-curvature="0"
       sodipodi:nodetypes="ccccc" />
  </g>
  <g
     inkscape:groupmode="layer"
     id="layer2"
     inkscape:label="arc"
     style="display:inline;opacity:1"
     transform="translate(-39.696847,-35.636513)">
    <path
       style="fill:#000000;fill-opacity:1;stroke:#000000;stroke-width:0.26499999;stroke-linecap:butt;stroke-linejoin:miter;stroke-miterlimit:4;stroke-dasharray:none;stroke-opacity:1"
       d="m 43.030393,36.011305 c 0,0 12.027128,20.847023 30.067822,21.114294 0,0 4.009044,0.267269 8.018087,-1.336348 0,0 5.211755,-2.138156 8.953529,-1.202713 0,0 2.298101,-4.26325 -3.796765,-9.17694 0,0 8.646205,-0.236235 20.977674,15.024553 0,0 6.60608,1.134803 9.7799,-2.640379 0,0 0,3.140417 -3.107,4.977895 0,0 0.50113,1.03567 0.70158,1.5368 0,0 10.65737,-0.133635 10.59055,-10.757598 0,0 15.20239,3.009026 16.80878,21.624354 0,0 -1.03943,1.606399 -3.96875,8.315476 l -0.8032,-5.386161 c 0,0 -33.55202,12.830656 -52.862247,8.754796 0,0 9.153982,12.561667 36.749557,11.626224 l 9.88898,1.603622 1.60361,18.04069 -8.01808,4.6104 c 0,0 -22.45064,6.1472 -42.963579,-6.48129 0,0 -1.202713,-6.5481 3.407686,-12.56167 0,0 -4.009043,1.73726 -6.147199,10.62397 l -7.416729,-5.01131 c 0,0 -0.133635,-5.54584 0.06682,-8.01808 0,0 0.06681,-1.00226 3.875405,-6.147201 0,0 -0.601356,-0.935443 -6.013564,5.679481 0,0 -0.868626,2.07134 -1.069078,5.4122 0,0 -6.614921,-4.20949 -10.824416,-12.027124 0,0 0,-1.336348 0.467722,-2.071339 0,0 5.545842,-4.543582 6.61492,-5.412208 0,0 -2.873147,-0.26727 -9.68852,4.142678 0,0 -6.414469,-9.087164 -8.552625,-18.575233 0,0 4.34313,7.349912 16.637528,2.605878 0,0 -15.690565,-8.551263 -19.978398,-38.887717 z"
       id="path827"
       inkscape:connector-curvature="0" />
    <path
       style="fill:#000000;fill-opacity:1;stroke:#ffffff;stroke-width:1.5;stroke-linecap:butt;stroke-linejoin:miter;stroke-miterlimit:4;stroke-dasharray:none;stroke-opacity:1"
       d="m 43.030393,36.011305 c 0,0 12.027128,20.847023 30.067822,21.114294 0,0 4.009044,0.267269 8.018087,-1.336348 0,0 5.211755,-2.138156 8.953529,-1.202713 0,0 2.298101,-4.26325 -3.796765,-9.17694 0,0 8.646205,-0.236235 20.977674,15.024553 0,0 6.60608,1.134803 9.7799,-2.640379 0,0 0,3.140417 -3.107,4.977895 0,0 0.50113,1.03567 0.70158,1.5368 0,0 10.65737,-0.133635 10.59055,-10.757598 0,0 15.20239,3.009026 16.80878,21.624354 0,0 -1.03943,1.606399 -3.96875,8.315476 l -0.8032,-5.386161 c 0,0 -33.55202,12.830656 -52.862247,8.754796 0,0 9.153982,12.561667 36.749557,11.626224 l 9.88898,1.603622 1.60361,18.04069 -8.01808,4.6104 c 0,0 -22.45064,6.1472 -42.963579,-6.48129 0,0 -1.202713,-6.5481 3.407686,-12.56167 0,0 -4.009043,1.73726 -6.147199,10.62397 l -7.416729,-5.01131 c 0,0 -0.133635,-5.54584 0.06682,-8.01808 0,0 0.06681,-1.00226 3.875405,-6.147201 0,0 -0.601356,-0.935443 -6.013564,5.679481 0,0 -0.868626,2.07134 -1.069078,5.4122 0,0 -6.614921,-4.20949 -10.824416,-12.027124 0,0 0,-1.336348 0.467722,-2.071339 0,0 5.545842,-4.543582 6.61492,-5.412208 0,0 -2.873147,-0.26727 -9.68852,4.142678 0,0 -6.414469,-9.087164 -8.552625,-18.575233 0,0 4.34313,7.349912 16.637528,2.605878 0,0 -15.690565,-8.551263 -19.978398,-38.887717 z"
       id="path306"
       inkscape:connector-curvature="0" />
  </g>
  <g
     inkscape:groupmode="layer"
     id="layer3"
     inkscape:label="szem"
     transform="translate(-39.696847,-35.636513)">
    <path
       style="fill:#ffffff;fill-opacity:1;stroke:#272727;stroke-width:0.26458299px;stroke-linecap:butt;stroke-linejoin:miter;stroke-opacity:1"
       d="m 88.162946,66.481769 c 0,0 -1.653645,1.464659 -1.889881,8.362725 0,0 1.748141,-4.866444 13.843375,-2.787575 0,0 -2.929312,-10.583333 -9.165919,-10.063616 0,0 -7.890253,-1.086681 -11.386533,9.827381 0,0 4.015997,-3.307292 6.614584,-5.149926 0,0 1.039433,-0.708708 1.984374,-0.188989 z"
       id="path834"
       inkscape:connector-curvature="0" />
  </g>
  <g
     inkscape:groupmode="layer"
     id="layer4"
     inkscape:label="nyelv"
     style="display:inline;opacity:1"
     transform="translate(-39.696847,-35.636513)" />
  <g
     inkscape:groupmode="layer"
     id="layer5"
     inkscape:label="nyelv 1"
     style="opacity:1"
     transform="translate(-39.696847,-35.636513)">
    <g
       id="g2546"
       style="stroke:#ffffff;stroke-width:0;stroke-dasharray:none;stroke-opacity:1"
       transform="translate(0,0.92368032)">
      <path
         style="display:inline;opacity:1;fill:#009a94;fill-opacity:1;stroke:#ffffff;stroke-width:0;stroke-linecap:butt;stroke-linejoin:miter;stroke-miterlimit:4;stroke-dasharray:none;stroke-opacity:1"
         d="m 96.484299,94.743785 c 0,0 4.409951,1.135893 8.686261,-1.670437 0,0 -0.66817,-2.271789 8.28535,-4.27631 0,0 3.83627,-0.525043 11.18618,-0.32459 l 10.95666,5.290037 c 0,0 15.93358,14.346745 -3.37665,35.461035 0,0 -1.5273,2.67269 -5.33589,3.20723 0,0 -2.73951,1.86892 -7.08264,0.39894 0,0 2.47224,-3.60814 5.21175,-12.76212 0,0 2.20498,-10.89123 0.93545,-14.633 0,0 -1.20272,-7.082647 -7.55037,-6.949012 0,0 -12.49485,0.53454 -21.916101,-3.741773 z"
         id="path837"
         inkscape:connector-curvature="0"
         sodipodi:nodetypes="cccccccccccc" />
      <path
         style="fill:#00c8bd;fill-opacity:1;stroke:#ffffff;stroke-width:0;stroke-linecap:butt;stroke-linejoin:miter;stroke-dasharray:none;stroke-opacity:1"
         d="m 113.45591,88.797036 c 0,0 5.21176,-0.334086 9.02035,1.135896 0,0 24.55648,19.118408 3.86228,40.946528 0,0 3.59078,-7.74851 4.91369,-14.36309 0,0 -4.14025,9.33386 -11.44866,16.31332 0,0 2.52763,1.34134 7.08264,0.73499 0,0 4.04245,-0.63476 6.28083,-3.107 0,0 19.06246,-17.21024 3.14042,-37.451147 L 124.5476,87.527508 c 0,0 -6.1138,-0.167047 -11.09169,1.269528 z"
         id="path883"
         inkscape:connector-curvature="0"
         sodipodi:nodetypes="cccccccccc" />
    </g>
  </g>
</svg>
